<svg width="134" height="33" viewBox="0 0 134 33" fill="none" xmlns="http://www.w3.org/2000/svg">
<g clip-path="url(#clip0_1772_3243)">
<path d="M43.2337 32.5408C42.983 32.8376 42.6431 33 42.2531 33C41.7628 33 41.3783 32.7872 40.8323 32.2216C39.7124 32.16 38.8989 31.3257 38.8989 30.2225C38.8989 29.1194 39.7792 28.2178 40.9772 28.2178C42.1751 28.2178 43.0442 29.069 43.0442 30.2225C43.0442 31.1969 42.4202 31.9528 41.512 32.1656C41.7739 32.4456 42.0079 32.5576 42.2586 32.5576C42.5372 32.5576 42.7712 32.4456 42.9718 32.2216L43.2337 32.5408ZM40.9772 31.7289C41.8408 31.7289 42.4871 31.0849 42.4871 30.2225C42.4871 29.3602 41.8408 28.7162 40.9772 28.7162C40.1135 28.7162 39.4561 29.3602 39.4561 30.2225C39.4561 31.0849 40.1024 31.7289 40.9772 31.7289Z" fill="white"/>
<path d="M44.4204 30.4919V28.2632H44.9776V30.4695C44.9776 31.3375 45.3732 31.7295 46.0752 31.7295C46.7772 31.7295 47.1784 31.3375 47.1784 30.4695V28.2632H47.7188V30.4919C47.7188 31.6287 47.1004 32.2278 46.0696 32.2278C45.0389 32.2278 44.4204 31.6287 44.4204 30.4919Z" fill="white"/>
<path d="M51.819 31.2031H49.7463L49.3173 32.1831H48.7434L50.5096 28.2632H51.0612L52.833 32.1831H52.248L51.819 31.2031ZM51.6246 30.7551L50.7833 28.8344L49.9419 30.7551H51.6246Z" fill="white"/>
<path d="M53.9702 28.2632H54.5274V31.6959H56.639V32.1831H53.9702V28.2632Z" fill="white"/>
<path d="M57.8372 28.2632H58.3943V32.1831H57.8372V28.2632Z" fill="white"/>
<path d="M60.8958 28.7504H59.5586V28.2632H62.7846V28.7504H61.4474V32.1831H60.8958V28.7504Z" fill="white"/>
<path d="M65.3972 30.8273V32.1824H64.8456V30.8161L63.2966 28.2626H63.8928L65.1409 30.3289L66.3945 28.2626H66.9461L65.3972 30.8273Z" fill="white"/>
<path d="M72.8243 30.2007H73.3592V31.7295C72.9691 32.0599 72.4287 32.2278 71.8827 32.2278C70.6848 32.2278 69.8044 31.3823 69.8044 30.2231C69.8044 29.064 70.6848 28.2184 71.8938 28.2184C72.5123 28.2184 73.036 28.4256 73.3926 28.8232L73.0472 29.1704C72.724 28.8568 72.3563 28.7168 71.9161 28.7168C71.0135 28.7168 70.3616 29.3496 70.3616 30.2231C70.3616 31.0967 71.0135 31.7295 71.9105 31.7295C72.2393 31.7295 72.5457 31.6567 72.8243 31.4775V30.2007Z" fill="white"/>
<path d="M74.947 30.4919V28.2632H75.5042V30.4695C75.5042 31.3375 75.8998 31.7295 76.6018 31.7295C77.3038 31.7295 77.705 31.3375 77.705 30.4695V28.2632H78.2455V30.4919C78.2455 31.6287 77.627 32.2278 76.5962 32.2278C75.5655 32.2278 74.947 31.6287 74.947 30.4919Z" fill="white"/>
<path d="M82.3463 31.2031H80.2737L79.8446 32.1831H79.2708L81.037 28.2632H81.5886L83.3604 32.1831H82.7753L82.3463 31.2031ZM82.1513 30.7551L81.31 28.8344L80.4687 30.7551H82.1513Z" fill="white"/>
<path d="M87.1044 32.1824L86.263 30.9785C86.185 30.9841 86.1015 30.9897 86.0179 30.9897H85.054V32.1824H84.4968V28.2626H86.0179C87.0319 28.2626 87.6448 28.7778 87.6448 29.6289C87.6448 30.2337 87.3328 30.6705 86.7868 30.8665L87.7117 32.1824H87.1044ZM87.0877 29.6296C87.0877 29.0696 86.7143 28.7504 86.0012 28.7504H85.054V30.5143H86.0012C86.7143 30.5143 87.0877 30.1895 87.0877 29.6296Z" fill="white"/>
<path d="M91.5897 31.2031H89.5171L89.088 32.1831H88.5142L90.2804 28.2632H90.832L92.6038 32.1831H92.0187L91.5897 31.2031ZM91.3947 30.7551L90.5534 28.8344L89.7121 30.7551H91.3947Z" fill="white"/>
<path d="M97.0944 28.2632V32.1831H96.6375L94.2974 29.26V32.1831H93.7402V28.2632H94.1971L96.5372 31.1863V28.2632H97.0944Z" fill="white"/>
<path d="M99.5962 28.7504H98.259V28.2632H101.485V28.7504H100.148V32.1831H99.5962V28.7504Z" fill="white"/>
<path d="M105.48 31.6952V32.1824H102.649V28.2626H105.402V28.7498H103.207V29.9537H105.162V30.4297H103.207V31.6952H105.48Z" fill="white"/>
<path d="M109.77 31.6952V32.1824H106.94V28.2626H109.692V28.7498H107.497V29.9537H109.453V30.4297H107.497V31.6952H109.77Z" fill="white"/>
<path d="M111.23 28.2632H112.873C114.127 28.2632 114.979 29.0584 114.979 30.2231C114.979 31.3879 114.127 32.1831 112.873 32.1831H111.23V28.2632ZM112.84 31.6953C113.804 31.6953 114.422 31.1017 114.422 30.2225C114.422 29.3434 113.804 28.7498 112.84 28.7498H111.787V31.6953H112.84Z" fill="white"/>
<path d="M39.1205 23.6192V6.41546H42.8127L48.1924 16.7128L53.5722 6.41546H57.265V23.6192H54.1102V11.6008L49.2436 20.9891H47.1648L42.2741 11.6008V23.6192H39.1199H39.1205Z" fill="white"/>
<path d="M61.1775 22.1937C59.8731 20.9487 59.2212 19.3677 59.2212 17.4507C59.2212 15.5337 59.8731 13.9527 61.1775 12.7071C62.4812 11.4621 64.0791 10.8393 65.9703 10.8393C67.8616 10.8393 69.4588 11.4621 70.7632 12.7071C72.0676 13.9527 72.7195 15.5331 72.7195 17.4507C72.7195 19.3683 72.067 20.9493 70.7632 22.1937C69.4588 23.4394 67.861 24.0615 65.9703 24.0615C64.0797 24.0615 62.4812 23.4394 61.1775 22.1937ZM63.4396 14.8699C62.7462 15.5418 62.4001 16.4023 62.4001 17.4507C62.4001 18.4991 62.7462 19.3596 63.4396 20.031C64.1323 20.7029 64.9761 21.0389 65.9703 21.0389C66.9646 21.0389 67.8084 20.7036 68.5011 20.031C69.1939 19.3596 69.5406 18.4991 69.5406 17.4507C69.5406 16.4023 69.1939 15.5424 68.5011 14.8699C67.8078 14.1985 66.9646 13.8619 65.9703 13.8619C64.9761 13.8619 64.1323 14.1979 63.4396 14.8699Z" fill="white"/>
<path d="M80.7651 20.6457H82.5499V23.6192H80.3002C78.9141 23.6192 77.8264 23.2751 77.0358 22.5869C76.2446 21.8988 75.8497 20.9487 75.8497 19.736V14.28H73.6978V11.3308H75.8497V7.91433L79.0286 7.22618V11.3302H82.5499V14.2794H79.0286V18.9981C79.0286 19.5065 79.179 19.9078 79.4812 20.2021C79.7826 20.497 80.2104 20.6444 80.7651 20.6444V20.6457Z" fill="white"/>
<path d="M85.6316 22.1937C84.3272 20.9487 83.6753 19.3677 83.6753 17.4507C83.6753 15.5337 84.3272 13.9527 85.6316 12.7071C86.9353 11.4621 88.5332 10.8393 90.4244 10.8393C92.3157 10.8393 93.9129 11.4621 95.2173 12.7071C96.5217 13.9527 97.1736 15.5331 97.1736 17.4507C97.1736 19.3683 96.5211 20.9493 95.2173 22.1937C93.9129 23.4394 92.3151 24.0615 90.4244 24.0615C88.5338 24.0615 86.9353 23.4394 85.6316 22.1937ZM87.8931 14.8699C87.1997 15.5418 86.8536 16.4023 86.8536 17.4507C86.8536 18.4991 87.1997 19.3596 87.8931 20.031C88.5858 20.7029 89.4296 21.0389 90.4238 21.0389C91.4181 21.0389 92.2619 20.7036 92.9546 20.031C93.6474 19.3596 93.994 18.4991 93.994 17.4507C93.994 16.4023 93.6474 15.5424 92.9546 14.8699C92.2612 14.1985 91.4181 13.8619 90.4238 13.8619C89.4296 13.8619 88.5858 14.1979 87.8931 14.8699Z" fill="white"/>
<path d="M108.556 9.16805C108.189 8.79162 108.006 8.32871 108.006 7.77931C108.006 7.22991 108.189 6.77136 108.556 6.40302C108.922 6.03468 109.379 5.84988 109.925 5.84988C110.472 5.84988 110.928 6.03405 111.295 6.40302C111.662 6.77136 111.845 7.23054 111.845 7.77931C111.845 8.32809 111.662 8.791 111.295 9.16805C110.928 9.5451 110.471 9.73301 109.925 9.73301C109.379 9.73301 108.923 9.5451 108.556 9.16805ZM108.348 23.6192V11.3308H111.503V23.6192H108.348Z" fill="white"/>
<path d="M118.545 18.8762C115.382 18.4338 113.801 17.1477 113.801 15.0179C113.801 13.855 114.229 12.8962 115.085 12.1428C115.941 11.3893 117.037 11.0122 118.374 11.0122C119.532 11.0122 120.587 11.3159 121.54 11.9219C122.494 12.5285 123.183 13.3312 123.607 14.3304L120.526 15.2643C120.346 14.8058 120.069 14.4449 119.694 14.1829C119.319 13.921 118.903 13.7897 118.448 13.7897C117.992 13.7897 117.648 13.8924 117.372 14.0971C117.094 14.3024 116.956 14.5637 116.956 14.8835C116.956 15.2033 117.127 15.4609 117.469 15.6575C117.812 15.8542 118.358 16.0103 119.108 16.1248C120.624 16.3214 121.793 16.7601 122.616 17.4395C123.439 18.1196 123.851 18.9757 123.851 20.0079C123.851 21.1385 123.399 22.0686 122.494 22.7972C121.59 23.5265 120.453 23.8911 119.083 23.8911C117.845 23.8911 116.723 23.5961 115.721 23.0063C114.719 22.4165 113.997 21.6219 113.557 20.622L116.614 19.639C116.826 20.1473 117.143 20.5486 117.568 20.8435C117.991 21.1385 118.472 21.2859 119.01 21.2859C119.483 21.2859 119.878 21.1752 120.196 20.9543C120.515 20.7334 120.673 20.459 120.673 20.1311C120.673 19.8032 120.506 19.5413 120.172 19.3447C119.837 19.1481 119.295 18.9925 118.545 18.878L118.545 18.8762Z" fill="white"/>
<path d="M132.215 20.6457H133.999V23.6192H131.75C130.364 23.6192 129.276 23.2751 128.485 22.5869C127.694 21.8988 127.299 20.9487 127.299 19.736V14.28H125.147V11.3308H127.299V7.91433L130.478 7.22618V11.3302H133.999V14.2794H130.478V18.9981C130.478 19.5065 130.629 19.9078 130.931 20.2021C131.232 20.497 131.66 20.6444 132.215 20.6444V20.6457Z" fill="white"/>
<path d="M102.413 23.6192H99.3181V17.7413C99.3181 14.1388 102.234 11.2082 105.818 11.2082H106.515V14.3192H105.818C103.941 14.3192 102.413 15.8542 102.413 17.7413V23.6192Z" fill="#56D2FC"/>
<path d="M9.64196 6.32214L12.0062 8.6983C9.2278 11.4907 9.2278 16.034 12.0062 18.8264C14.7846 21.6188 19.3051 21.6188 22.0835 18.8264L24.4478 21.2026C20.3656 25.3053 13.7241 25.3053 9.64196 21.2026C5.55978 17.0998 5.55978 10.4249 9.64196 6.32214Z" fill="#56D2FC"/>
<path d="M4.98652 1.6426L7.35077 4.01877C2.00568 9.3908 2.00506 18.1326 7.35077 23.5047C12.6965 28.8773 21.3939 28.8773 26.739 23.5047L29.1032 25.8808C22.4543 32.5632 11.6354 32.5632 4.9859 25.8808C-1.66358 19.1985 -1.66296 8.32498 4.9859 1.6426H4.98652Z" fill="#56D2FC"/>
<path d="M7.36255 4.03058C9.94904 1.43167 13.3874 0 17.0455 0C20.7036 0 24.142 1.43167 26.7278 4.03058C29.3143 6.63011 30.7382 10.0858 30.7382 13.7617C30.7382 17.4376 29.3137 20.8939 26.7278 23.4929L24.4515 21.205C28.5355 17.1004 28.5355 10.4224 24.4515 6.31777C20.3675 2.21315 13.7229 2.21315 9.63889 6.31777L7.36255 4.02996V4.03058Z" fill="#56D2FC"/>
</g>
<defs>
<clipPath id="clip0_1772_3243">
<rect width="134" height="33" fill="white"/>
</clipPath>
</defs>
</svg>
