<svg width="134" height="33" viewBox="0 0 134 33" fill="none" xmlns="http://www.w3.org/2000/svg">
<g clip-path="url(#clip0_1919_4774)">
<path d="M43.2337 32.5408C42.983 32.8376 42.6431 33 42.2531 33C41.7628 33 41.3783 32.7872 40.8323 32.2216C39.7124 32.16 38.8989 31.3256 38.8989 30.2225C38.8989 29.1193 39.7792 28.2178 40.9772 28.2178C42.1751 28.2178 43.0442 29.0689 43.0442 30.2225C43.0442 31.1968 42.4202 31.9528 41.512 32.1656C41.7739 32.4456 42.0079 32.5576 42.2586 32.5576C42.5372 32.5576 42.7712 32.4456 42.9718 32.2216L43.2337 32.5408ZM40.9772 31.7288C41.8408 31.7288 42.4871 31.0848 42.4871 30.2225C42.4871 29.3601 41.8408 28.7162 40.9772 28.7162C40.1135 28.7162 39.4561 29.3601 39.4561 30.2225C39.4561 31.0848 40.1024 31.7288 40.9772 31.7288Z" fill="white"/>
<path d="M44.4204 30.4919V28.2632H44.9776V30.4695C44.9776 31.3375 45.3732 31.7294 46.0752 31.7294C46.7772 31.7294 47.1784 31.3375 47.1784 30.4695V28.2632H47.7188V30.4919C47.7188 31.6286 47.1004 32.2278 46.0696 32.2278C45.0389 32.2278 44.4204 31.6286 44.4204 30.4919Z" fill="white"/>
<path d="M51.819 31.2031H49.7463L49.3173 32.183H48.7434L50.5096 28.2632H51.0612L52.833 32.183H52.248L51.819 31.2031ZM51.6246 30.7551L50.7833 28.8344L49.9419 30.7551H51.6246Z" fill="white"/>
<path d="M53.9702 28.2632H54.5274V31.6958H56.639V32.183H53.9702V28.2632Z" fill="white"/>
<path d="M57.8372 28.2632H58.3943V32.183H57.8372V28.2632Z" fill="white"/>
<path d="M60.8958 28.7504H59.5586V28.2632H62.7846V28.7504H61.4474V32.183H60.8958V28.7504Z" fill="white"/>
<path d="M65.3972 30.8274V32.1825H64.8456V30.8162L63.2966 28.2627H63.8928L65.1409 30.329L66.3945 28.2627H66.9461L65.3972 30.8274Z" fill="white"/>
<path d="M72.8243 30.2006H73.3592V31.7293C72.9691 32.0597 72.4287 32.2277 71.8827 32.2277C70.6848 32.2277 69.8044 31.3821 69.8044 30.223C69.8044 29.0638 70.6848 28.2183 71.8938 28.2183C72.5123 28.2183 73.036 28.4255 73.3926 28.823L73.0472 29.1702C72.724 28.8566 72.3563 28.7166 71.9161 28.7166C71.0135 28.7166 70.3616 29.3494 70.3616 30.223C70.3616 31.0965 71.0135 31.7293 71.9105 31.7293C72.2393 31.7293 72.5457 31.6565 72.8243 31.4773V30.2006Z" fill="white"/>
<path d="M74.947 30.4919V28.2632H75.5042V30.4695C75.5042 31.3375 75.8998 31.7294 76.6018 31.7294C77.3038 31.7294 77.705 31.3375 77.705 30.4695V28.2632H78.2455V30.4919C78.2455 31.6286 77.627 32.2278 76.5962 32.2278C75.5655 32.2278 74.947 31.6286 74.947 30.4919Z" fill="white"/>
<path d="M82.3463 31.2031H80.2737L79.8446 32.183H79.2708L81.037 28.2632H81.5886L83.3604 32.183H82.7753L82.3463 31.2031ZM82.1513 30.7551L81.31 28.8344L80.4687 30.7551H82.1513Z" fill="white"/>
<path d="M87.1044 32.1825L86.263 30.9786C86.185 30.9842 86.1015 30.9898 86.0179 30.9898H85.054V32.1825H84.4968V28.2627H86.0179C87.0319 28.2627 87.6448 28.7779 87.6448 29.629C87.6448 30.2338 87.3328 30.6706 86.7868 30.8666L87.7117 32.1825H87.1044ZM87.0877 29.6297C87.0877 29.0697 86.7143 28.7505 86.0012 28.7505H85.054V30.5144H86.0012C86.7143 30.5144 87.0877 30.1896 87.0877 29.6297Z" fill="white"/>
<path d="M91.5897 31.2031H89.5171L89.088 32.183H88.5142L90.2804 28.2632H90.832L92.6038 32.183H92.0187L91.5897 31.2031ZM91.3947 30.7551L90.5534 28.8344L89.7121 30.7551H91.3947Z" fill="white"/>
<path d="M97.0944 28.2632V32.183H96.6375L94.2974 29.2599V32.183H93.7402V28.2632H94.1971L96.5372 31.1863V28.2632H97.0944Z" fill="white"/>
<path d="M99.5962 28.7504H98.259V28.2632H101.485V28.7504H100.148V32.183H99.5962V28.7504Z" fill="white"/>
<path d="M105.48 31.6953V32.1825H102.649V28.2627H105.402V28.7499H103.207V29.9538H105.162V30.4298H103.207V31.6953H105.48Z" fill="white"/>
<path d="M109.77 31.6953V32.1825H106.94V28.2627H109.692V28.7499H107.497V29.9538H109.453V30.4298H107.497V31.6953H109.77Z" fill="white"/>
<path d="M111.23 28.2632H112.873C114.127 28.2632 114.979 29.0583 114.979 30.2231C114.979 31.3878 114.127 32.183 112.873 32.183H111.23V28.2632ZM112.84 31.6952C113.804 31.6952 114.422 31.1016 114.422 30.2225C114.422 29.3433 113.804 28.7497 112.84 28.7497H111.787V31.6952H112.84Z" fill="white"/>
<path d="M39.1205 23.6192V6.41553H42.8127L48.1924 16.7129L53.5722 6.41553H57.265V23.6192H54.1102V11.6009L49.2436 20.9892H47.1648L42.2741 11.6009V23.6192H39.1199H39.1205Z" fill="white"/>
<path d="M61.1775 22.1938C59.8731 20.9488 59.2212 19.3678 59.2212 17.4508C59.2212 15.5338 59.8731 13.9528 61.1775 12.7072C62.4812 11.4622 64.0791 10.8394 65.9703 10.8394C67.8616 10.8394 69.4588 11.4622 70.7632 12.7072C72.0676 13.9528 72.7195 15.5332 72.7195 17.4508C72.7195 19.3684 72.067 20.9494 70.7632 22.1938C69.4588 23.4394 67.861 24.0616 65.9703 24.0616C64.0797 24.0616 62.4812 23.4394 61.1775 22.1938ZM63.4396 14.8699C62.7462 15.5419 62.4001 16.4024 62.4001 17.4508C62.4001 18.4992 62.7462 19.3597 63.4396 20.031C64.1323 20.703 64.9761 21.039 65.9703 21.039C66.9646 21.039 67.8084 20.7036 68.5011 20.031C69.1939 19.3597 69.5406 18.4992 69.5406 17.4508C69.5406 16.4024 69.1939 15.5425 68.5011 14.8699C67.8078 14.1986 66.9646 13.862 65.9703 13.862C64.9761 13.862 64.1323 14.198 63.4396 14.8699Z" fill="white"/>
<path d="M80.7651 20.6461H82.5499V23.6195H80.3002C78.9141 23.6195 77.8264 23.2755 77.0358 22.5873C76.2446 21.8992 75.8497 20.9491 75.8497 19.7364V14.2804H73.6978V11.3312H75.8497V7.91471L79.0286 7.22656V11.3306H82.5499V14.2798H79.0286V18.9985C79.0286 19.5068 79.179 19.9082 79.4812 20.2024C79.7826 20.4974 80.2104 20.6448 80.7651 20.6448V20.6461Z" fill="white"/>
<path d="M85.6316 22.1938C84.3272 20.9488 83.6753 19.3678 83.6753 17.4508C83.6753 15.5338 84.3272 13.9528 85.6316 12.7072C86.9353 11.4622 88.5332 10.8394 90.4244 10.8394C92.3157 10.8394 93.9129 11.4622 95.2173 12.7072C96.5217 13.9528 97.1736 15.5332 97.1736 17.4508C97.1736 19.3684 96.5211 20.9494 95.2173 22.1938C93.9129 23.4394 92.3151 24.0616 90.4244 24.0616C88.5338 24.0616 86.9353 23.4394 85.6316 22.1938ZM87.8931 14.8699C87.1997 15.5419 86.8536 16.4024 86.8536 17.4508C86.8536 18.4992 87.1997 19.3597 87.8931 20.031C88.5858 20.703 89.4296 21.039 90.4238 21.039C91.4181 21.039 92.2619 20.7036 92.9546 20.031C93.6474 19.3597 93.994 18.4992 93.994 17.4508C93.994 16.4024 93.6474 15.5425 92.9546 14.8699C92.2612 14.1986 91.4181 13.862 90.4238 13.862C89.4296 13.862 88.5858 14.198 87.8931 14.8699Z" fill="white"/>
<path d="M108.556 9.16827C108.189 8.79184 108.006 8.32892 108.006 7.77953C108.006 7.23013 108.189 6.77157 108.556 6.40323C108.922 6.03489 109.379 5.8501 109.925 5.8501C110.472 5.8501 110.928 6.03427 111.295 6.40323C111.662 6.77157 111.845 7.23075 111.845 7.77953C111.845 8.3283 111.662 8.79122 111.295 9.16827C110.928 9.54532 110.471 9.73322 109.925 9.73322C109.379 9.73322 108.923 9.54532 108.556 9.16827ZM108.348 23.6194V11.331H111.503V23.6194H108.348Z" fill="white"/>
<path d="M118.545 18.8766C115.382 18.4342 113.801 17.1482 113.801 15.0184C113.801 13.8555 114.229 12.8967 115.085 12.1432C115.941 11.3897 117.037 11.0127 118.374 11.0127C119.532 11.0127 120.587 11.3163 121.54 11.9223C122.494 12.529 123.183 13.3316 123.607 14.3309L120.526 15.2648C120.346 14.8062 120.069 14.4453 119.694 14.1834C119.319 13.9215 118.903 13.7902 118.448 13.7902C117.992 13.7902 117.648 13.8928 117.372 14.0975C117.094 14.3029 116.956 14.5642 116.956 14.884C116.956 15.2038 117.127 15.4614 117.469 15.658C117.812 15.8546 118.358 16.0108 119.108 16.1253C120.624 16.3219 121.793 16.7605 122.616 17.44C123.439 18.12 123.851 18.9762 123.851 20.0084C123.851 21.1389 123.399 22.0691 122.494 22.7977C121.59 23.5269 120.453 23.8915 119.083 23.8915C117.845 23.8915 116.723 23.5966 115.721 23.0068C114.719 22.4169 113.997 21.6224 113.557 20.6225L116.614 19.6394C116.826 20.1478 117.143 20.5491 117.568 20.844C117.991 21.1389 118.472 21.2864 119.01 21.2864C119.483 21.2864 119.878 21.1756 120.196 20.9548C120.515 20.7339 120.673 20.4595 120.673 20.1316C120.673 19.8037 120.506 19.5417 120.172 19.3451C119.837 19.1485 119.295 18.993 118.545 18.8785L118.545 18.8766Z" fill="white"/>
<path d="M132.215 20.6461H133.999V23.6195H131.75C130.364 23.6195 129.276 23.2755 128.485 22.5873C127.694 21.8992 127.299 20.9491 127.299 19.7364V14.2804H125.147V11.3312H127.299V7.91471L130.478 7.22656V11.3306H133.999V14.2798H130.478V18.9985C130.478 19.5068 130.629 19.9082 130.931 20.2024C131.232 20.4974 131.66 20.6448 132.215 20.6448V20.6461Z" fill="white"/>
<path d="M102.413 23.6194H99.3181V17.7415C99.3181 14.139 102.234 11.2085 105.818 11.2085H106.515V14.3195H105.818C103.941 14.3195 102.413 15.8544 102.413 17.7415V23.6194Z" fill="white"/>
<path d="M9.64196 6.32227L12.0062 8.69843C9.2278 11.4908 9.2278 16.0341 12.0062 18.8265C14.7846 21.6189 19.3051 21.6189 22.0835 18.8265L24.4478 21.2027C20.3656 25.3054 13.7241 25.3054 9.64196 21.2027C5.55978 17.0999 5.55978 10.425 9.64196 6.32227Z" fill="white"/>
<path d="M4.98652 1.64258L7.35077 4.01874C2.00568 9.39078 2.00506 18.1326 7.35077 23.5047C12.6965 28.8773 21.3939 28.8773 26.739 23.5047L29.1032 25.8808C22.4543 32.5632 11.6354 32.5632 4.9859 25.8808C-1.66358 19.1984 -1.66296 8.32496 4.9859 1.64258H4.98652Z" fill="white"/>
<path d="M7.36255 4.03058C9.94904 1.43167 13.3874 0 17.0455 0C20.7036 0 24.142 1.43167 26.7278 4.03058C29.3143 6.63011 30.7382 10.0858 30.7382 13.7617C30.7382 17.4376 29.3137 20.8939 26.7278 23.4929L24.4515 21.205C28.5355 17.1004 28.5355 10.4224 24.4515 6.31777C20.3675 2.21315 13.7229 2.21315 9.63889 6.31777L7.36255 4.02996V4.03058Z" fill="white"/>
</g>
<defs>
<clipPath id="clip0_1919_4774">
<rect width="134" height="33" fill="white"/>
</clipPath>
</defs>
</svg>
